<?xml version="1.0" encoding="UTF-8" standalone="no"?>
<!DOCTYPE svg PUBLIC "-//W3C//DTD SVG 1.1//EN" "http://www.w3.org/Graphics/SVG/1.1/DTD/svg11.dtd">
<!-- Created with Vectornator (http://vectornator.io/) -->
<svg stroke-miterlimit="10" style="fill-rule:nonzero;clip-rule:evenodd;stroke-linecap:round;stroke-linejoin:round;" version="1.1" viewBox="0 0 412.928 146.939" xml:space="preserve" xmlns="http://www.w3.org/2000/svg" xmlns:xlink="http://www.w3.org/1999/xlink">
<g id="Layer-1">
<path d="M166.789 106.487C160.349 106.487 154.995 104.859 150.727 101.603C146.458 98.3475 143.962 93.9341 143.238 88.3631L152.572 88.3631C153.15 91.1846 154.634 93.6446 157.021 95.7429C159.481 97.7685 162.773 98.7815 166.897 98.7815C170.732 98.7815 173.553 97.9857 175.362 96.3941C177.171 94.7299 178.075 92.7765 178.075 90.5337C178.075 87.2778 176.882 85.1073 174.494 84.022C172.179 82.9367 168.887 81.96 164.618 81.0916C161.724 80.513 158.83 79.6809 155.936 78.5956C153.042 77.5103 150.618 75.991 148.665 74.0377C146.711 72.0116 145.734 69.3707 145.734 66.1153C145.734 61.4124 147.471 57.5776 150.944 54.6112C154.489 51.5726 159.264 50.0533 165.269 50.0533C170.985 50.0533 175.652 51.5003 179.269 54.3944C182.959 57.2158 185.093 61.2674 185.672 66.5493L176.664 66.5493C176.303 63.7998 175.109 61.6655 173.083 60.1462C171.13 58.5546 168.489 57.7584 165.161 57.7584C161.905 57.7584 159.373 58.446 157.564 59.8204C155.827 61.1952 154.959 63.004 154.959 65.2468C154.959 67.4174 156.081 69.1176 158.324 70.3478C160.639 71.5776 163.75 72.6266 167.657 73.495C170.985 74.2185 174.132 75.1229 177.099 76.2082C180.137 77.2208 182.597 78.7765 184.479 80.8748C186.432 82.9004 187.409 85.8668 187.409 89.7738C187.481 94.6213 185.636 98.637 181.874 101.82C178.184 104.931 173.155 106.487 166.789 106.487ZM225.176 106.487C220.039 106.487 215.408 105.329 211.284 103.014C207.233 100.627 204.013 97.3345 201.625 93.1383C199.31 88.8694 198.153 83.9134 198.153 78.2702C198.153 72.6266 199.31 67.7069 201.625 63.5107C204.013 59.2418 207.233 55.9496 211.284 53.6345C215.408 51.2471 220.039 50.0533 225.176 50.0533C231.543 50.0533 236.897 51.7171 241.238 55.0452C245.651 58.3737 248.437 62.8231 249.594 68.394L240.261 68.394C239.538 65.0659 237.765 62.4977 234.943 60.6889C232.121 58.8078 228.829 57.8671 225.067 57.8671C222.029 57.8671 219.171 58.6269 216.494 60.1462C213.817 61.6655 211.646 63.9447 209.982 66.9833C208.318 70.022 207.486 73.7841 207.486 78.2702C207.486 82.7558 208.318 86.518 209.982 89.5566C211.646 92.5956 213.817 94.9108 216.494 96.5024C219.171 98.0217 222.029 98.7815 225.067 98.7815C228.829 98.7815 232.121 97.8771 234.943 96.0683C237.765 94.1872 239.538 91.5463 240.261 88.1459L249.594 88.1459C248.509 93.5723 245.76 97.9857 241.346 101.386C236.933 104.787 231.543 106.487 225.176 106.487ZM262.326 105.185L262.326 27.0456L271.442 27.0456L271.442 60.5803C273.25 57.2521 275.819 54.6835 279.147 52.8751C282.475 50.9936 286.093 50.0533 290 50.0533C296.222 50.0533 301.214 52.0066 304.976 55.9137C308.739 59.7481 310.62 65.6808 310.62 73.7118L310.62 105.185L301.612 105.185L301.612 74.6885C301.612 63.4743 297.09 57.8671 288.046 57.8671C283.343 57.8671 279.4 59.5672 276.217 62.968C273.034 66.2961 271.442 71.0713 271.442 77.2935L271.442 105.185L262.326 105.185ZM348.633 106.487C343.496 106.487 338.938 105.329 334.959 103.014C330.98 100.627 327.832 97.3345 325.517 93.1383C323.274 88.9417 322.152 83.9857 322.152 78.2702C322.152 72.6266 323.274 67.7069 325.517 63.5107C327.76 59.2418 330.871 55.9496 334.85 53.6345C338.902 51.2471 343.568 50.0533 348.85 50.0533C354.059 50.0533 358.545 51.2471 362.307 53.6345C366.142 55.9496 369.072 59.0246 371.098 62.8594C373.124 66.6938 374.137 70.8178 374.137 75.2312C374.137 76.0273 374.1 76.8231 374.028 77.6189C374.028 78.4147 374.028 79.3191 374.028 80.3321L331.16 80.3321C331.377 84.456 332.318 87.8928 333.982 90.6419C335.718 93.3192 337.853 95.3448 340.385 96.7196C342.989 98.0943 345.739 98.7815 348.633 98.7815C352.395 98.7815 355.543 97.9134 358.075 96.1769C360.607 94.4404 362.452 92.089 363.609 89.1226L372.617 89.1226C371.17 94.115 368.385 98.2752 364.261 101.603C360.209 104.859 355 106.487 348.633 106.487ZM348.633 57.7584C344.292 57.7584 340.421 59.0969 337.02 61.7741C333.692 64.3787 331.775 68.2132 331.269 73.2778L365.129 73.2778C364.912 68.4304 363.248 64.6319 360.137 61.8827C357.025 59.1332 353.191 57.7584 348.633 57.7584ZM392.188 39.4177C390.452 39.4177 388.969 38.8387 387.739 37.6811C386.509 36.4513 385.894 34.9319 385.894 33.1231C385.894 31.3867 386.509 29.9397 387.739 28.782C388.969 27.6244 390.452 27.0456 392.188 27.0456C393.925 27.0456 395.372 27.6244 396.53 28.782C397.759 29.9397 398.374 31.3867 398.374 33.1231C398.374 34.9319 397.759 36.4513 396.53 37.6811C395.372 38.8387 393.925 39.4177 392.188 39.4177ZM375.692 129.06L375.692 121.247L379.925 121.247C382.602 121.247 384.519 120.668 385.677 119.51C386.907 118.425 387.522 116.544 387.522 113.867L387.522 51.3554L396.638 51.3554L396.638 114.084C396.638 119.293 395.336 123.091 392.731 125.479C390.127 127.866 386.328 129.06 381.336 129.06L375.692 129.06Z" fill="#000000" fill-rule="nonzero" opacity="1" stroke="none"/>
<path d="M36.9557 16.4828C34.1013 16.4828 31.6971 18.767 31.6976 21.6214L31.6976 26.8796L26.5589 26.8796C20.822 26.8796 16.2819 31.4067 16.2817 37.1569L16.2817 109.695C16.2817 111.056 16.4791 112.382 16.9987 113.639C17.5182 114.896 18.3097 116.142 19.2692 117.105C20.2291 118.067 21.3611 118.735 22.6153 119.256C23.8695 119.776 25.2013 120.092 26.5589 120.092L98.9779 120.092C100.335 120.092 101.667 119.777 102.922 119.256C104.175 118.735 105.308 118.066 106.268 117.105C107.227 116.142 108.019 114.896 108.538 113.639C109.058 112.382 109.255 111.056 109.255 109.695L109.255 37.1569C109.255 31.4069 104.663 26.8797 98.9779 26.8796L93.7198 26.8796L93.7198 21.6214C93.7198 18.7671 91.435 16.4829 88.5811 16.4828C85.7268 16.4828 83.4427 18.7675 83.4425 21.6214L83.4425 26.8796L42.0944 26.8796L42.0944 21.6214C42.0944 18.767 39.8103 16.4834 36.9557 16.4828ZM28.949 58.7869L96.5878 58.7869C98.9232 58.7869 100.771 60.6341 100.77 62.9695L100.77 107.425C100.77 109.76 98.9229 111.607 96.5878 111.607L28.949 111.607C26.6136 111.607 24.6469 109.761 24.6469 107.425L24.6469 62.9695C24.6469 60.6342 26.6136 58.7864 28.949 58.7869Z" fill="#219653" fill-rule="nonzero" opacity="1" stroke="none"/>
</g>
</svg>
