<?xml version="1.0" encoding="UTF-8" standalone="no"?>
<svg
   xml:space="preserve"
   width="1000"
   height="1000"
   version="1.1"
   id="svg44"
   viewBox="0 0 1000 1000"
   xmlns="http://www.w3.org/2000/svg"
   xmlns:svg="http://www.w3.org/2000/svg"><defs
   id="defs48" />
  <path
   d="m 881.05,340.9 c -5.8,4.5 -108.2,62.2 -108.2,190.5 0,148.4 130.3,200.9 134.2,202.2 -0.6,3.2 -20.7,71.9 -68.7,141.9 -42.8,61.6 -87.5,123.1 -155.5,123.1 -68,0 -85.5,-39.5 -164,-39.5 -76.5,0 -103.7,40.8 -165.9,40.8 -62.2,0 -105.6,-57 -155.5,-127 C 139.65,790.7 92.95,663 92.95,541.8 c 0,-194.4 126.4,-297.5 250.8,-297.5 66.1,0 121.2,43.4 162.7,43.4 39.5,0 101.1,-46 176.3,-46 28.5,0 130.9,2.6 198.3,99.2 z m -234,-181.5 c 31.1,-36.9 53.1,-88.1 53.1,-139.3 0,-7.1 -0.6,-14.3 -1.9,-20.1 -50.6,1.9 -110.8,33.7 -147.1,75.8 -28.5,32.4 -55.1,83.6 -55.1,135.5 0,7.8 1.3,15.6 1.9,18.1 3.2,0.6 8.4,1.3 13.6,1.3 45.4,0 102.5,-30.4 135.5,-71.3 z"
   id="path42" />
</svg>
