<?xml version="1.0" encoding="UTF-8" standalone="no"?>
<!-- Created with Inkscape (http://www.inkscape.org/) -->

<svg
   width="4.7624998mm"
   height="4.7624998mm"
   viewBox="0 0 4.7624998 4.7624998"
   version="1.1"
   id="svg5"
   xmlns="http://www.w3.org/2000/svg"
   xmlns:svg="http://www.w3.org/2000/svg"
   xmlns:sketch="http://www.bohemiancoding.com/sketch/ns">
  <defs
     id="defs2">
    <filter
       x="-0.059999999"
       y="-0.059999999"
       width="1.12"
       height="1.145"
       filterUnits="objectBoundingBox"
       id="filter-1">
      <feOffset
         dx="0"
         dy="1"
         in="SourceAlpha"
         result="shadowOffsetOuter1"
         id="feOffset828" />
      <feGaussianBlur
         stdDeviation="0.5"
         in="shadowOffsetOuter1"
         result="shadowBlurOuter1"
         id="feGaussianBlur830" />
      <feColorMatrix
         values="0 0 0 0 0   0 0 0 0 0   0 0 0 0 0  0 0 0 0.168 0"
         in="shadowBlurOuter1"
         type="matrix"
         result="shadowMatrixOuter1"
         id="feColorMatrix832" />
      <feOffset
         dx="0"
         dy="0"
         in="SourceAlpha"
         result="shadowOffsetOuter2"
         id="feOffset834" />
      <feGaussianBlur
         stdDeviation="0.5"
         in="shadowOffsetOuter2"
         result="shadowBlurOuter2"
         id="feGaussianBlur836" />
      <feColorMatrix
         values="0 0 0 0 0   0 0 0 0 0   0 0 0 0 0  0 0 0 0.084 0"
         in="shadowBlurOuter2"
         type="matrix"
         result="shadowMatrixOuter2"
         id="feColorMatrix838" />
      <feMerge
         id="feMerge846">
        <feMergeNode
           in="shadowMatrixOuter1"
           id="feMergeNode840" />
        <feMergeNode
           in="shadowMatrixOuter2"
           id="feMergeNode842" />
        <feMergeNode
           in="SourceGraphic"
           id="feMergeNode844" />
      </feMerge>
    </filter>
    <rect
       id="path-2"
       x="0"
       y="0"
       width="40"
       height="40"
       rx="2" />
  </defs>
  <g
     id="layer1"
     transform="translate(-112.55307,-116.52075)">
    <g
       id="Google-Button"
       stroke="none"
       stroke-width="1"
       fill="none"
       fill-rule="evenodd"
       sketch:type="MSPage"
       transform="matrix(0.26458333,0,0,0.26458333,108.8489,112.81658)">
      <g
         id="9-PATCH"
         sketch:type="MSArtboardGroup"
         transform="translate(-608,-160)" />
      <g
         id="btn_google_light_normal"
         sketch:type="MSArtboardGroup"
         transform="translate(-1,-1)">
        <g
           id="logo_googleg_48dp"
           sketch:type="MSLayerGroup"
           transform="translate(15,15)">
          <path
             d="m 17.64,9.2045455 c 0,-0.6381819 -0.05727,-1.2518182 -0.163636,-1.8409091 H 9 V 10.845 h 4.843636 C 13.635,11.97 13.000909,12.923182 12.047727,13.561364 v 2.258182 h 2.908637 C 16.658182,14.252727 17.64,11.945455 17.64,9.2045455 Z"
             id="Shape"
             fill="#4285f4"
             sketch:type="MSShapeGroup" />
          <path
             d="m 9,18 c 2.43,0 4.467273,-0.805909 5.956364,-2.180454 L 12.047727,13.561364 C 11.241818,14.101364 10.210909,14.420455 9,14.420455 6.6559091,14.420455 4.6718182,12.837273 3.9640909,10.71 H 0.95727273 v 2.331818 C 2.4381818,15.983182 5.4818182,18 9,18 Z"
             id="path864"
             fill="#34a853"
             sketch:type="MSShapeGroup" />
          <path
             d="M 3.9640909,10.71 C 3.7840909,10.17 3.6818182,9.5931818 3.6818182,9 c 0,-0.5931818 0.1022727,-1.17 0.2822727,-1.71 V 4.9581818 H 0.95727273 C 0.34772727,6.1731818 0,7.5477273 0,9 c 0,1.452273 0.34772727,2.826818 0.95727273,4.041818 z"
             id="path866"
             fill="#fbbc05"
             sketch:type="MSShapeGroup" />
          <path
             d="m 9,3.5795455 c 1.321364,0 2.507727,0.4540909 3.440455,1.3459091 L 15.021818,2.3440909 C 13.463182,0.89181818 11.425909,0 9,0 5.4818182,0 2.4381818,2.0168182 0.95727273,4.9581818 L 3.9640909,7.29 C 4.6718182,5.1627273 6.6559091,3.5795455 9,3.5795455 Z"
             id="path868"
             fill="#ea4335"
             sketch:type="MSShapeGroup" />
          <path
             d="M 0,0 H 18 V 18 H 0 Z"
             id="path870"
             sketch:type="MSShapeGroup" />
        </g>
        <g
           id="handles_square"
           sketch:type="MSLayerGroup" />
      </g>
    </g>
  </g>
</svg>
