<svg id="no_space" data-name="no space" xmlns="http://www.w3.org/2000/svg" viewBox="0 0 237.99 265.62"><defs><style>.cls-1,.cls-3,.cls-4,.cls-5{fill:#209653;}.cls-2{fill:#fff;}.cls-3{opacity:0.05;}.cls-4{opacity:0.2;}.cls-5{opacity:0.5;}</style></defs><title>schej_logo_no_space</title><rect class="cls-1" y="27.64" width="237.99" height="237.99" rx="28.98"/><rect class="cls-2" x="20.48" y="108.74" width="197.02" height="135.58" rx="14.68"/><path class="cls-1" d="M51.6,0h0A12.62,12.62,0,0,1,64.22,12.62V31.15a0,0,0,0,1,0,0H39a0,0,0,0,1,0,0V12.62A12.62,12.62,0,0,1,51.6,0Z"/><path class="cls-1" d="M185.73,0h0a12.62,12.62,0,0,1,12.62,12.62V31.15a0,0,0,0,1,0,0H173.11a0,0,0,0,1,0,0V12.62A12.62,12.62,0,0,1,185.73,0Z"/><rect class="cls-3" x="8.99" y="108.74" width="220.4" height="45.19"/><rect class="cls-4" x="8.99" y="153.94" width="220.4" height="45.19"/><rect class="cls-5" x="8.99" y="199.13" width="220.4" height="45.19"/></svg>