<?xml version="1.0" encoding="UTF-8" standalone="no"?>
<!-- Created with Inkscape (http://www.inkscape.org/) -->

<svg
   width="9.0609856in"
   height="3.1097269in"
   viewBox="0 0 230.14904 78.987062"
   version="1.1"
   id="svg34210"
   xmlns="http://www.w3.org/2000/svg"
   xmlns:svg="http://www.w3.org/2000/svg">
  <defs
     id="defs34207">
    <filter
       style="color-interpolation-filters:sRGB"
       id="filter1476"
       x="-0.017612444"
       y="-0.055869239"
       width="1.0425634"
       height="1.1350173">
      <feFlood
         flood-opacity="0.498039"
         flood-color="rgb(0,0,0)"
         result="flood"
         id="feFlood1466" />
      <feComposite
         in="flood"
         in2="SourceGraphic"
         operator="in"
         result="composite1"
         id="feComposite1468" />
      <feGaussianBlur
         in="composite1"
         stdDeviation="0.2"
         result="blur"
         id="feGaussianBlur1470" />
      <feOffset
         dx="0.2"
         dy="0.2"
         result="offset"
         id="feOffset1472" />
      <feComposite
         in="SourceGraphic"
         in2="offset"
         operator="over"
         result="composite2"
         id="feComposite1474" />
    </filter>
  </defs>
  <g
     id="g31269"
     transform="matrix(8.1,0,0,8.1,-444.58559,-843.05124)"
     style="filter:url(#filter1476)">
    <path
       id="rect25156"
       style="fill:#27ae60;stroke-width:0.264999"
       d="m 77.120659,106.96661 h 4.812424 v 3.78119 h -4.812424 z" />
    <g
       aria-label=".it"
       id="text14138"
       style="font-size:4.23333px;line-height:1.25;fill:#f2f2f2;stroke-width:0.264583">
      <path
         d="m 77.80605,110.11059 q 0,-0.14262 0.09508,-0.23151 0.09715,-0.0889 0.241846,-0.0889 0.146761,0 0.241845,0.0889 0.09715,0.0889 0.09715,0.23151 0,0.14056 -0.09508,0.22945 -0.09508,0.0868 -0.243913,0.0868 -0.146761,0 -0.241846,-0.0868 -0.09508,-0.0889 -0.09508,-0.22945 z"
         style="font-weight:bold;font-family:Roboto;-inkscape-font-specification:'Roboto Bold'"
         id="path1285" />
      <path
         d="m 79.635394,110.40411 h -0.599446 v -2.23655 h 0.599446 z m -0.634586,-2.81533 q 0,-0.13435 0.08888,-0.22117 0.09095,-0.0868 0.24598,-0.0868 0.152962,0 0.243913,0.0868 0.09095,0.0868 0.09095,0.22117 0,0.13643 -0.09302,0.22325 -0.09095,0.0868 -0.241846,0.0868 -0.150895,0 -0.243913,-0.0868 -0.09095,-0.0868 -0.09095,-0.22325 z"
         style="font-weight:bold;font-family:Roboto;-inkscape-font-specification:'Roboto Bold'"
         id="path1287" />
      <path
         d="m 80.842555,107.61772 v 0.54984 h 0.382405 v 0.43822 h -0.382405 v 1.11621 q 0,0.12402 0.04754,0.17776 0.04754,0.0538 0.181901,0.0538 0.09922,0 0.175699,-0.0145 v 0.45268 q -0.175699,0.0537 -0.361734,0.0537 -0.628385,0 -0.640788,-0.63458 v -1.20509 h -0.326594 v -0.43822 h 0.326594 v -0.54984 z"
         style="font-weight:bold;font-family:Roboto;-inkscape-font-specification:'Roboto Bold'"
         id="path1289" />
    </g>
    <g
       aria-label="Schej"
       id="text1244"
       style="font-size:8.46667px;line-height:1.25;stroke-width:0.264583">
      <path
         d="m 58.740549,109.76605 q 0,-0.3514 -0.248047,-0.53743 -0.248047,-0.19017 -0.892969,-0.39688 -0.644923,-0.21084 -1.021127,-0.41341 -1.025261,-0.55397 -1.025261,-1.49242 0,-0.48782 0.272852,-0.86816 0.276985,-0.38447 0.789616,-0.59945 0.516764,-0.21497 1.157552,-0.21497 0.644923,0 1.149285,0.23564 0.504362,0.23151 0.781348,0.65733 0.28112,0.42581 0.28112,0.96738 h -1.240235 q 0,-0.41341 -0.26045,-0.64079 -0.260449,-0.23151 -0.731738,-0.23151 -0.454753,0 -0.706934,0.19431 -0.252181,0.19016 -0.252181,0.50436 0,0.29352 0.293522,0.49196 0.297657,0.19843 0.872299,0.37207 1.058333,0.31832 1.542025,0.78961 0.483692,0.47129 0.483692,1.17409 0,0.78135 -0.591179,1.22784 -0.591179,0.44235 -1.591635,0.44235 -0.694531,0 -1.265039,-0.25219 -0.570508,-0.25631 -0.872299,-0.69866 -0.297656,-0.44235 -0.297656,-1.02526 h 1.244369 q 0,0.99632 1.190625,0.99632 0.442351,0 0.690398,-0.17777 0.248047,-0.1819 0.248047,-0.50436 z"
         style="font-weight:bold;font-family:Roboto;-inkscape-font-specification:'Roboto Bold';fill:#6fcf97"
         id="path1292" />
      <path
         d="m 62.605947,110.46472 q 0.330729,0 0.537435,-0.1819 0.206706,-0.18191 0.214974,-0.4837 h 1.120346 q -0.0041,0.45476 -0.248047,0.8351 -0.243913,0.3762 -0.669727,0.58704 -0.42168,0.20671 -0.93431,0.20671 -0.959115,0 -1.513087,-0.60772 -0.553971,-0.61185 -0.553971,-1.68672 v -0.0785 q 0,-1.03353 0.549837,-1.64951 0.549837,-0.61598 1.508952,-0.61598 0.839226,0 1.343588,0.47955 0.508497,0.47543 0.516765,1.26918 h -1.120346 q -0.0083,-0.34727 -0.214974,-0.56224 -0.206706,-0.21911 -0.545703,-0.21911 -0.417546,0 -0.63252,0.30593 -0.21084,0.30179 -0.21084,0.98391 v 0.12403 q 0,0.6904 0.21084,0.99219 0.21084,0.30179 0.640788,0.30179 z"
         style="font-weight:bold;font-family:Roboto;-inkscape-font-specification:'Roboto Bold';fill:#6fcf97"
         id="path1294" />
      <path
         d="m 66.326652,107.36 q 0.475423,-0.57051 1.19476,-0.57051 1.455209,0 1.475879,1.69085 v 2.86494 h -1.194759 v -2.83187 q 0,-0.38447 -0.165365,-0.56637 -0.165365,-0.18604 -0.549838,-0.18604 -0.525032,0 -0.760677,0.40515 v 3.17913 h -1.19476 v -6.35 h 1.19476 z"
         style="font-weight:bold;font-family:Roboto;-inkscape-font-specification:'Roboto Bold';fill:#6fcf97"
         id="path1296" />
      <path
         d="m 71.957318,111.42797 q -0.98392,0 -1.604037,-0.60359 -0.615984,-0.60358 -0.615984,-1.60817 v -0.11575 q 0,-0.67386 0.26045,-1.20303 0.260449,-0.5333 0.735872,-0.81855 0.479558,-0.28939 1.091407,-0.28939 0.917774,0 1.442807,0.57877 0.529167,0.57878 0.529167,1.64125 v 0.48782 h -2.848407 q 0.05788,0.43822 0.347266,0.7028 0.293522,0.26459 0.740007,0.26459 0.690397,0 1.079004,-0.50023 l 0.587045,0.65732 q -0.268718,0.38034 -0.727605,0.59532 -0.458887,0.21084 -1.016992,0.21084 z m -0.136426,-3.6711 q -0.355534,0 -0.578776,0.23978 -0.219108,0.23978 -0.28112,0.68626 h 1.661914 v -0.0951 q -0.0083,-0.39688 -0.214974,-0.61185 -0.206705,-0.21911 -0.587044,-0.21911 z"
         style="font-weight:bold;font-family:Roboto;-inkscape-font-specification:'Roboto Bold';fill:#6fcf97"
         id="path1298" />
      <path
         d="m 75.740034,106.87217 v 4.71703 q 0,0.74 -0.392741,1.14928 -0.392741,0.41341 -1.132748,0.41341 -0.310059,0 -0.591178,-0.0703 v -0.94671 q 0.214974,0.0372 0.376204,0.0372 0.541569,0 0.541569,-0.57465 v -4.72529 z m -1.293978,-1.15755 q 0,-0.26872 0.177767,-0.44235 0.181901,-0.17364 0.491959,-0.17364 0.310059,0 0.487826,0.17364 0.181901,0.17363 0.181901,0.44235 0,0.27285 -0.186035,0.44648 -0.181901,0.17363 -0.483692,0.17363 -0.30179,0 -0.487825,-0.17363 -0.181901,-0.17363 -0.181901,-0.44648 z"
         style="font-weight:bold;font-family:Roboto;-inkscape-font-specification:'Roboto Bold';fill:#6fcf97"
         id="path1300" />
    </g>
    <path
       d="m 81.93308,110.74781 h -4.812424 v -3.78119 h 4.812424 m -1.031234,-2.40622 v 0.68749 H 78.15189 V 104.5604 H 77.4644 v 0.68749 h -0.343744 c -0.381557,0 -0.687491,0.30593 -0.687491,0.68749 v 4.81243 a 0.68748924,0.68748924 0 0 0 0.687491,0.68749 h 4.812424 a 0.68748924,0.68748924 0 0 0 0.687489,-0.68749 v -4.81243 c 0,-0.38156 -0.30937,-0.68749 -0.687489,-0.68749 h -0.343745 v -0.68749"
       id="path18174"
       style="fill:#6fcf97;fill-opacity:1;stroke-width:0.344286;stroke-miterlimit:4;stroke-dasharray:none" />
  </g>
</svg>
