<?xml version="1.0" encoding="UTF-8" standalone="no"?>
<svg
   id="no_space"
   data-name="no space"
   viewBox="0 0 175170.81 70556.642"
   version="1.1"
   width="175170.81"
   height="70556.641"
   xmlns="http://www.w3.org/2000/svg"
   xmlns:svg="http://www.w3.org/2000/svg">
  <defs
     id="defs4">
    <style
       id="style2">.cls-1,.cls-3,.cls-4,.cls-5{fill:#209653;}.cls-2{fill:#fff;}.cls-3{opacity:0.05;}.cls-4{opacity:0.2;}.cls-5{opacity:0.5;}</style>
  </defs>
  <title
     id="title6">schej_logo_no_space</title>
  <rect
     class="cls-1"
     y="27.639999"
     width="237.99001"
     height="237.99001"
     rx="28.98"
     id="rect8"
     x="0" />
  <rect
     class="cls-2"
     x="20.48"
     y="108.74"
     width="197.02"
     height="135.58"
     rx="14.68"
     id="rect10" />
  <path
     class="cls-1"
     d="M 51.6,0 V 0 A 12.62,12.62 0 0 1 64.22,12.62 V 31.15 H 39 V 12.62 A 12.62,12.62 0 0 1 51.6,0 Z"
     id="path12" />
  <path
     class="cls-1"
     d="m 185.73,0 v 0 a 12.62,12.62 0 0 1 12.62,12.62 V 31.15 H 173.11 V 12.62 A 12.62,12.62 0 0 1 185.73,0 Z"
     id="path14" />
  <rect
     class="cls-3"
     x="8.9899998"
     y="108.74"
     width="220.39999"
     height="45.189999"
     id="rect16" />
  <rect
     class="cls-4"
     x="8.9899998"
     y="153.94"
     width="220.39999"
     height="45.189999"
     id="rect18" />
  <rect
     class="cls-5"
     x="8.9899998"
     y="199.13"
     width="220.39999"
     height="45.189999"
     id="rect20" />
  <g
     aria-label="schej"
     id="text252"
     style="font-size:192px;fill:#ffffff">
    <path
       d="m 326.50782,196.93901 q -17.088,0 -28.416,-8.64 -11.328,-8.64 -13.248,-23.424 h 16.512 q 1.536,7.488 7.872,13.056 6.528,5.376 17.472,5.376 10.176,0 14.976,-4.224 4.8,-4.416 4.8,-10.368 0,-8.64 -6.336,-11.52 -6.144,-2.88 -17.472,-5.184 -7.68,-1.536 -15.36,-4.416 -7.68,-2.88 -12.864,-8.064 -5.184,-5.376 -5.184,-14.016 0,-12.48 9.216,-20.352 9.408,-8.064 25.344,-8.064 15.168,0 24.768,7.68 9.792,7.488 11.328,21.504 h -15.936 q -0.96,-7.296 -6.336,-11.328 -5.184,-4.224 -14.016,-4.224 -8.64,0 -13.44,3.648 -4.608,3.648 -4.608,9.6 0,5.76 5.952,9.024 6.144,3.264 16.512,5.568 8.832,1.92 16.704,4.8 8.064,2.688 13.056,8.256 5.184,5.376 5.184,15.744 0.192,12.864 -9.792,21.312 -9.792,8.256 -26.688,8.256 z"
       style="font-family:'DM Sans';-inkscape-font-specification:'DM Sans';fill:#000000"
       id="path1130" />
    <path
       d="m 429.80345,196.93901 q -13.632,0 -24.576,-6.144 -10.752,-6.336 -17.088,-17.472 -6.144,-11.328 -6.144,-26.304 0,-14.976 6.144,-26.112 6.336,-11.328 17.088,-17.472 10.944,-6.336 24.576,-6.336 16.896,0 28.416,8.832 11.712,8.832 14.784,23.616 h -16.512 q -1.92,-8.832 -9.408,-13.632 -7.488,-4.992 -17.472,-4.992 -8.064,0 -15.168,4.032 -7.104,4.032 -11.52,12.096 -4.416,8.064 -4.416,19.968 0,11.904 4.416,19.968 4.416,8.064 11.52,12.288 7.104,4.032 15.168,4.032 9.984,0 17.472,-4.8 7.488,-4.992 9.408,-14.016 h 16.512 q -2.88,14.4 -14.592,23.424 -11.712,9.024 -28.608,9.024 z"
       style="font-family:'DM Sans';-inkscape-font-specification:'DM Sans';fill:#000000"
       id="path1132" />
    <path
       d="m 495.46739,194.63501 v -138.24 h 16.128 v 59.328 q 4.8,-8.832 13.632,-13.632 8.832,-4.992 19.2,-4.992 16.512,0 26.496,10.368 9.984,10.176 9.984,31.488 v 55.68 h -15.936 v -53.952 q 0,-29.76 -24,-29.76 -12.48,0 -20.928,9.024 -8.448,8.832 -8.448,25.344 v 49.344 z"
       style="font-family:'DM Sans';-inkscape-font-specification:'DM Sans';fill:#000000"
       id="path1134" />
    <path
       d="m 648.10712,196.93901 q -13.632,0 -24.192,-6.144 -10.56,-6.336 -16.704,-17.472 -5.952,-11.136 -5.952,-26.304 0,-14.976 5.952,-26.112 5.952,-11.328 16.512,-17.472 10.752,-6.336 24.768,-6.336 13.824,0 23.808,6.336 10.176,6.144 15.552,16.32 5.376,10.176 5.376,21.888 0,2.112 -0.192,4.224 0,2.112 0,4.8 h -75.84 q 0.576,10.944 4.992,18.24 4.608,7.104 11.328,10.752 6.912,3.648 14.592,3.648 9.984,0 16.704,-4.608 6.72,-4.608 9.792,-12.48 h 15.936 q -3.84,13.248 -14.784,22.08 -10.752,8.64 -27.648,8.64 z m 0,-86.208 q -11.52,0 -20.544,7.104 -8.832,6.912 -10.176,20.352 h 59.904 q -0.576,-12.864 -8.832,-20.16 -8.256,-7.296 -20.352,-7.296 z"
       style="font-family:'DM Sans';-inkscape-font-specification:'DM Sans';fill:#000000"
       id="path1136" />
    <path
       d="m 725.0988,78.28301 q -4.608,0 -7.872,-3.072 -3.264,-3.264 -3.264,-8.064 0,-4.608 3.264,-7.68 3.264,-3.072 7.872,-3.072 4.608,0 7.68,3.072 3.264,3.072 3.264,7.68 0,4.8 -3.264,8.064 -3.072,3.072 -7.68,3.072 z m -29.184,158.592 v -13.824 h 7.488 q 7.104,0 10.176,-3.072 3.264,-2.88 3.264,-9.984 v -110.592 h 16.128 v 110.976 q 0,13.824 -6.912,20.16 -6.912,6.336 -20.16,6.336 z"
       style="font-family:'DM Sans';-inkscape-font-specification:'DM Sans';fill:#000000"
       id="path1138" />
  </g>
</svg>
