<?xml version="1.0" encoding="UTF-8" standalone="no"?>
<svg
   width="171"
   height="55"
   viewBox="0 0 171 55"
   fill="none"
   version="1.1"
   id="svg91"
   sodipodi:docname="schej_logo_with_text.svg"
   inkscape:export-filename="schej_logo_with_text_big.png"
   inkscape:export-xdpi="300"
   inkscape:export-ydpi="300"
   inkscape:version="1.2.1 (9c6d41e, 2022-07-14)"
   xmlns:inkscape="http://www.inkscape.org/namespaces/inkscape"
   xmlns:sodipodi="http://sodipodi.sourceforge.net/DTD/sodipodi-0.dtd"
   xmlns="http://www.w3.org/2000/svg"
   xmlns:svg="http://www.w3.org/2000/svg">
  <sodipodi:namedview
     id="namedview93"
     pagecolor="#ffffff"
     bordercolor="#000000"
     borderopacity="0.25"
     inkscape:showpageshadow="2"
     inkscape:pageopacity="0.0"
     inkscape:pagecheckerboard="0"
     inkscape:deskcolor="#d1d1d1"
     showgrid="false"
     inkscape:zoom="4.5895992"
     inkscape:cx="21.025801"
     inkscape:cy="16.886006"
     inkscape:window-width="1390"
     inkscape:window-height="1205"
     inkscape:window-x="625"
     inkscape:window-y="25"
     inkscape:window-maximized="0"
     inkscape:current-layer="g84" />
  <g
     clip-path="url(#clip0_2995_17869)"
     id="g84">
    <path
       d="M71.4092 41.5444C68.7173 41.5444 66.4791 40.8639 64.6945 39.5028C62.91 38.1417 61.8665 36.2967 61.564 33.9677H65.4658C65.7078 35.1473 66.3278 36.1757 67.326 37.0528C68.3543 37.8997 69.7305 38.3232 71.4546 38.3232C73.0576 38.3232 74.2373 37.9905 74.9934 37.3251C75.7496 36.6294 76.1276 35.8127 76.1276 34.8751C76.1276 33.514 75.6286 32.6066 74.6305 32.1529C73.6626 31.6992 72.2864 31.2909 70.5018 30.928C69.292 30.686 68.0821 30.3382 66.8723 29.8845C65.6624 29.4308 64.6492 28.7956 63.8325 27.9789C63.0158 27.132 62.6075 26.028 62.6075 24.667C62.6075 22.7009 63.3334 21.0979 64.7853 19.8578C66.2673 18.5874 68.2636 17.9523 70.774 17.9523C73.1635 17.9523 75.1144 18.5572 76.6267 19.767C78.1693 20.9467 79.0615 22.6405 79.3035 24.8484H75.5378C75.3866 23.6991 74.8875 22.8068 74.0407 22.1716C73.224 21.5062 72.12 21.1735 70.7287 21.1735C69.3676 21.1735 68.309 21.4608 67.5528 22.0355C66.8269 22.6102 66.4639 23.3664 66.4639 24.304C66.4639 25.2114 66.9328 25.9222 67.8704 26.4364C68.8383 26.9506 70.1389 27.3891 71.7722 27.7521C73.1635 28.0546 74.4792 28.4326 75.7193 28.8863C76.9897 29.3098 78.018 29.9601 78.8045 30.8372C79.6211 31.6841 80.0294 32.9242 80.0294 34.5575C80.0597 36.584 79.2884 38.2627 77.7156 39.5935C76.173 40.8941 74.0709 41.5444 71.4092 41.5444ZM95.818 41.5444C93.6705 41.5444 91.7348 41.0605 90.0107 40.0926C88.3169 39.0945 86.971 37.7183 85.9728 35.964C85.005 34.1794 84.521 32.1076 84.521 29.7483C84.521 27.3891 85.005 25.3324 85.9728 23.5781C86.971 21.7936 88.3169 20.4173 90.0107 19.4495C91.7348 18.4513 93.6705 17.9523 95.818 17.9523C98.4797 17.9523 100.718 18.6479 102.533 20.0393C104.378 21.4306 105.542 23.2907 106.026 25.6197H102.124C101.822 24.2284 101.081 23.1546 99.9013 22.3985C98.7217 21.6121 97.3455 21.2189 95.7727 21.2189C94.5023 21.2189 93.3076 21.5365 92.1885 22.1716C91.0694 22.8068 90.162 23.7596 89.4663 25.0299C88.7706 26.3003 88.4228 27.8731 88.4228 29.7483C88.4228 31.6236 88.7706 33.1964 89.4663 34.4668C90.162 35.7371 91.0694 36.705 92.1885 37.3704C93.3076 38.0056 94.5023 38.3232 95.7727 38.3232C97.3455 38.3232 98.7217 37.9451 99.9013 37.189C101.081 36.4026 101.822 35.2986 102.124 33.877H106.026C105.572 36.1455 104.423 37.9905 102.578 39.4121C100.733 40.8336 98.4797 41.5444 95.818 41.5444ZM111.349 41V8.33392H115.16V22.3531C115.916 20.9618 116.99 19.888 118.381 19.1319C119.772 18.3455 121.285 17.9523 122.918 17.9523C125.519 17.9523 127.606 18.7689 129.179 20.4022C130.752 22.0053 131.538 24.4855 131.538 27.8428V41H127.772V28.2512C127.772 23.563 125.882 21.2189 122.101 21.2189C120.135 21.2189 118.487 21.9297 117.156 23.3512C115.825 24.7426 115.16 26.7388 115.16 29.34V41H111.349ZM147.429 41.5444C145.282 41.5444 143.376 41.0605 141.713 40.0926C140.049 39.0945 138.734 37.7183 137.766 35.964C136.828 34.2097 136.359 32.1378 136.359 29.7483C136.359 27.3891 136.828 25.3324 137.766 23.5781C138.703 21.7936 140.004 20.4173 141.668 19.4495C143.361 18.4513 145.312 17.9523 147.52 17.9523C149.698 17.9523 151.573 18.4513 153.146 19.4495C154.749 20.4173 155.974 21.7028 156.821 23.3059C157.668 24.9089 158.091 26.633 158.091 28.478C158.091 28.8107 158.076 29.1434 158.046 29.4761C158.046 29.8088 158.046 30.1869 158.046 30.6104H140.125C140.216 32.3344 140.609 33.7711 141.305 34.9205C142.03 36.0396 142.923 36.8865 143.981 37.4612C145.07 38.0359 146.22 38.3232 147.429 38.3232C149.002 38.3232 150.318 37.9602 151.377 37.2343C152.435 36.5084 153.207 35.5254 153.69 34.2853H157.456C156.851 36.3723 155.687 38.1115 153.963 39.5028C152.269 40.8639 150.091 41.5444 147.429 41.5444ZM147.429 21.1735C145.615 21.1735 143.996 21.7331 142.575 22.8522C141.184 23.941 140.382 25.5441 140.17 27.6614H154.326C154.235 25.6348 153.539 24.0469 152.239 22.8975C150.938 21.7482 149.335 21.1735 147.429 21.1735ZM165.638 13.506C164.912 13.506 164.292 13.2641 163.778 12.7801C163.264 12.2659 163.006 11.6308 163.006 10.8746C163.006 10.1487 163.264 9.54377 163.778 9.05983C164.292 8.57589 164.912 8.33392 165.638 8.33392C166.364 8.33392 166.969 8.57589 167.453 9.05983C167.967 9.54377 168.224 10.1487 168.224 10.8746C168.224 11.6308 167.967 12.2659 167.453 12.7801C166.969 13.2641 166.364 13.506 165.638 13.506ZM158.742 50.9813V47.7147H160.511C161.63 47.7147 162.432 47.4727 162.916 46.9888C163.43 46.5351 163.687 45.7487 163.687 44.6296V18.4967H167.498V44.7203C167.498 46.898 166.954 48.486 165.865 49.4841C164.776 50.4822 163.188 50.9813 161.101 50.9813H158.742Z"
       fill="black"
       id="path70" />
    <path
       d="M43.9682 46.9391H9.871V20.0874H43.9682V46.9391ZM36.3851 7.88213H36.6616H17.1775V5.43553C17.1775 4.09042 16.0871 3 14.742 3C13.3969 3 12.3065 4.09042 12.3065 5.43553V7.88213H9.871C7.16755 7.88213 5 10.0546 5 12.7642V46.9391C5 47.5802 5.12598 48.215 5.37077 48.8074C5.61556 49.3997 5.97433 49.9379 6.42665 50.3912C6.87897 50.8446 7.41594 51.2042 8.00693 51.4495C8.59791 51.6949 9.23132 51.8212 9.871 51.8212H43.9682C44.6079 51.8212 45.2413 51.6949 45.8323 51.4495C46.4233 51.2042 46.9602 50.8446 47.4125 50.3912C47.8649 49.9379 48.2236 49.3997 48.4684 48.8074C48.7132 48.215 48.8392 47.5802 48.8392 46.9391V12.7642C48.8392 10.0546 46.6473 7.88213 43.9682 7.88213H41.5326V5.4355C41.5326 4.09041 40.4422 3 39.0971 3C37.7521 3 36.6616 4.09041 36.6616 5.4355V7.88213"
       fill="#219653"
       id="path72" />
    <path
       d="m 5.00195,16.0884 v 30.8514 c 7.1e-4,2.6953 2.18046,4.88 4.8696,4.8808 H 43.9702 c 2.6891,-8e-4 4.8689,-2.1855 4.8697,-4.8808 V 16.0884 Z"
       fill="#219653"
       id="path74"
       sodipodi:nodetypes="ccccccc" />
    <path
       d="M8.98438 24.9191C8.98438 23.8186 9.87654 22.9264 10.9771 22.9264H42.8603C43.9608 22.9264 44.853 23.8186 44.853 24.9191V45.8425C44.853 46.943 43.9608 47.8352 42.8603 47.8352H10.9771C9.87654 47.8352 8.98438 46.943 8.98438 45.8425V24.9191Z"
       fill="white"
       id="path76" />
    <rect
       x="5"
       y="22.8312"
       width="43.8373"
       height="8.34996"
       fill="#219653"
       fill-opacity="0.05"
       id="rect78" />
    <rect
       x="5"
       y="31.181"
       width="43.8373"
       height="8.34996"
       fill="#219653"
       fill-opacity="0.2"
       id="rect80" />
    <path
       d="M5 39.5311H48.8373V42.6624C48.8373 45.5446 46.5008 47.8811 43.6186 47.8811H10.2187C7.3365 47.8811 5 45.5446 5 42.6624V39.5311Z"
       fill="#219653"
       fill-opacity="0.5"
       id="path82" />
  </g>
  <defs
     id="defs89">
    <clipPath
       id="clip0_2995_17869">
      <rect
         width="171"
         height="55"
         fill="white"
         id="rect86" />
    </clipPath>
  </defs>
</svg>
