<svg width="456" height="157" viewBox="0 0 456 157" fill="none" xmlns="http://www.w3.org/2000/svg">
<path d="M118.688 129.362H26.0067V56.3757H118.688V129.362ZM98.0756 23.1999H98.8275H45.8669V16.5497C45.8669 12.8935 42.903 9.92957 39.2468 9.92957V9.92957C35.5906 9.92957 32.6267 12.8935 32.6267 16.5497V23.1999H26.0067C18.6583 23.1999 12.7666 29.105 12.7666 36.4701V129.362C12.7666 131.105 13.109 132.831 13.7744 134.441C14.4398 136.051 15.415 137.513 16.6444 138.746C17.8739 139.978 19.3335 140.955 20.9399 141.622C22.5462 142.289 24.2679 142.633 26.0067 142.633H118.688C120.426 142.633 122.148 142.289 123.755 141.622C125.361 140.955 126.82 139.978 128.05 138.746C129.279 137.513 130.255 136.051 130.92 134.441C131.585 132.831 131.928 131.105 131.928 129.362V36.4701C131.928 29.105 125.97 23.1999 118.688 23.1999H112.068V16.5496C112.068 12.8935 109.104 9.92957 105.447 9.92957V9.92957C101.791 9.92957 98.8275 12.8935 98.8275 16.5496V23.1999" fill="#219653"/>
<path d="M12.7705 56.3782V129.364C12.7724 136.69 18.6973 142.629 26.0068 142.631H118.692C126.001 142.629 131.926 136.69 131.928 129.364V56.3782H12.7705Z" fill="#219653"/>
<path d="M23.5996 69.5089C23.5996 66.5175 26.0246 64.0925 29.0161 64.0925H115.679C118.671 64.0925 121.096 66.5175 121.096 69.5089V126.382C121.096 129.373 118.671 131.798 115.679 131.798H29.016C26.0246 131.798 23.5996 129.373 23.5996 126.382V69.5089Z" fill="white"/>
<rect x="12.7666" y="63.8334" width="119.156" height="22.6964" fill="#219653" fill-opacity="0.05"/>
<rect x="12.7666" y="86.5298" width="119.156" height="22.6964" fill="#219653" fill-opacity="0.2"/>
<path d="M12.7666 109.226H131.923V117.737C131.923 125.572 125.572 131.923 117.737 131.923H26.9518C19.1175 131.923 12.7666 125.572 12.7666 117.737V109.226Z" fill="#219653" fill-opacity="0.5"/>
<path d="M178.847 114.929C174.772 114.929 171.565 113.94 169.227 111.963C166.89 109.985 165.721 106.418 165.721 101.264V76.7198H157.989V70.3366H165.721L166.71 59.6379H173.273V70.3366H186.399V76.7198H173.273V101.264C173.273 104.081 173.843 105.999 174.981 107.018C176.12 107.977 178.128 108.456 181.005 108.456H185.68V114.929H178.847ZM200.579 60.447C199.081 60.447 197.822 59.9675 196.803 59.0085C195.844 57.9896 195.364 56.7309 195.364 55.2325C195.364 53.794 195.844 52.5953 196.803 51.6363C197.822 50.6773 199.081 50.1979 200.579 50.1979C202.017 50.1979 203.246 50.6773 204.265 51.6363C205.284 52.5953 205.793 53.794 205.793 55.2325C205.793 56.7309 205.284 57.9896 204.265 59.0085C203.246 59.9675 202.017 60.447 200.579 60.447ZM196.803 114.929V70.3366H204.355V114.929H196.803ZM217.504 114.929V70.3366H224.337L224.876 76.8097C226.315 74.4122 228.233 72.5542 230.63 71.2356C233.028 69.917 235.725 69.2577 238.722 69.2577C242.258 69.2577 245.285 69.9769 247.802 71.4154C250.379 72.8539 252.357 75.0416 253.736 77.9785C255.294 75.2813 257.422 73.1536 260.119 71.5952C262.876 70.0369 265.843 69.2577 269.02 69.2577C274.354 69.2577 278.61 70.876 281.786 74.1126C284.963 77.2892 286.551 82.204 286.551 88.857V114.929H279.089V89.6661C279.089 85.051 278.16 81.5747 276.302 79.2371C274.444 76.8996 271.777 75.7308 268.301 75.7308C264.704 75.7308 261.708 77.1394 259.31 79.9564C256.973 82.7135 255.804 86.6693 255.804 91.8238V114.929H248.252V89.6661C248.252 85.051 247.323 81.5747 245.465 79.2371C243.607 76.8996 240.939 75.7308 237.463 75.7308C233.927 75.7308 230.96 77.1394 228.563 79.9564C226.225 82.7135 225.056 86.6693 225.056 91.8238V114.929H217.504ZM317.976 116.008C313.72 116.008 309.944 115.049 306.648 113.131C303.351 111.153 300.744 108.426 298.826 104.95C296.968 101.474 296.039 97.368 296.039 92.633C296.039 87.9579 296.968 83.8822 298.826 80.4059C300.684 76.8696 303.261 74.1425 306.558 72.2246C309.914 70.2466 313.78 69.2577 318.156 69.2577C322.471 69.2577 326.187 70.2466 329.304 72.2246C332.48 74.1425 334.908 76.6898 336.586 79.8665C338.264 83.0431 339.103 86.4595 339.103 90.1156C339.103 90.7749 339.073 91.4342 339.014 92.0935C339.014 92.7528 339.014 93.502 339.014 94.3412H303.501C303.681 97.7575 304.46 100.605 305.839 102.882C307.277 105.1 309.045 106.778 311.143 107.917C313.301 109.056 315.578 109.625 317.976 109.625C321.093 109.625 323.7 108.906 325.798 107.467C327.895 106.029 329.424 104.081 330.383 101.623H337.845C336.646 105.759 334.338 109.205 330.922 111.963C327.566 114.66 323.25 116.008 317.976 116.008ZM317.976 75.6409C314.38 75.6409 311.173 76.7498 308.356 78.9674C305.599 81.1251 304.011 84.3018 303.591 88.4973H331.641C331.462 84.4816 330.083 81.3349 327.506 79.0573C324.928 76.7797 321.752 75.6409 317.976 75.6409ZM351.541 114.929V76.7198H344.798V70.3366H351.541V62.6047C351.541 58.2893 352.619 55.1426 354.777 53.1647C356.935 51.1868 360.081 50.1979 364.217 50.1979H368.712V56.671H365.386C363.108 56.671 361.49 57.1505 360.531 58.1095C359.572 59.0085 359.093 60.5669 359.093 62.7845V70.3366H370.061V76.7198H359.093V114.929H351.541ZM395.325 116.008C390.05 116.008 385.855 114.42 382.738 111.243C379.622 108.007 378.063 103.062 378.063 96.409V70.3366H385.615V95.5998C385.615 104.89 389.421 109.535 397.033 109.535C400.929 109.535 404.136 108.157 406.653 105.399C409.23 102.582 410.519 98.5967 410.519 93.4421V70.3366H418.071V114.929H411.238L410.699 106.928C409.32 109.745 407.252 111.963 404.495 113.581C401.798 115.199 398.741 116.008 395.325 116.008ZM430.502 114.929V50.1979H438.054V114.929H430.502Z" fill="black"/>
</svg>
