<svg id="svg" version="1.1" xmlns="http://www.w3.org/2000/svg" xmlns:xlink="http://www.w3.org/1999/xlink" width="400" height="400" viewBox="0, 0, 400,400"><g id="svgg"><path id="path0" d="M72.600 165.470 C 68.059 166.056,64.513 166.975,63.600 167.802 C 63.050 168.301,62.060 168.990,61.400 169.334 C 59.798 170.168,55.944 175.023,54.596 177.905 C 53.425 180.407,53.169 186.927,53.375 209.000 C 53.486 220.880,53.717 245.900,53.888 264.600 C 54.060 283.300,54.346 298.825,54.524 299.100 C 54.782 299.498,84.360 299.600,200.216 299.600 L 345.585 299.600 345.793 298.700 C 346.007 297.775,346.373 251.032,346.518 206.000 C 346.607 178.344,346.642 178.817,344.340 176.009 C 343.713 175.244,343.200 174.409,343.200 174.154 C 343.200 173.544,339.115 169.200,338.541 169.200 C 338.296 169.200,337.579 168.687,336.947 168.060 C 334.074 165.205,344.102 165.405,201.400 165.358 C 131.220 165.335,73.260 165.385,72.600 165.470 " stroke="none" fill="#e1f2e6" fill-rule="evenodd"></path><path id="path1" d="M63.376 37.830 C 62.949 38.176,62.870 38.311,63.200 38.130 C 63.530 37.948,66.680 37.701,70.200 37.581 L 76.600 37.361 70.376 37.281 C 65.225 37.214,64.019 37.308,63.376 37.830 M161.932 37.500 C 183.124 37.557,217.684 37.557,238.732 37.500 C 259.779 37.443,242.440 37.396,200.200 37.396 C 157.960 37.396,140.739 37.443,161.932 37.500 M326.719 37.498 C 328.544 37.572,331.424 37.572,333.119 37.497 C 334.814 37.422,333.320 37.361,329.800 37.362 C 326.280 37.362,324.894 37.424,326.719 37.498 M47.322 41.429 L 46.200 42.458 47.500 41.554 C 48.215 41.057,48.800 40.593,48.800 40.525 C 48.800 40.209,48.358 40.480,47.322 41.429 M71.280 163.995 C 70.554 164.167,69.834 164.447,69.680 164.617 C 69.526 164.788,69.760 164.764,70.200 164.564 C 70.672 164.349,123.667 164.117,199.400 163.998 L 327.800 163.796 200.200 163.739 C 130.020 163.708,72.006 163.823,71.280 163.995 M329.000 164.411 C 331.897 165.204,332.185 165.237,330.854 164.622 C 330.114 164.280,329.124 164.018,328.654 164.041 C 328.009 164.072,328.094 164.162,329.000 164.411 M339.000 168.257 C 341.037 170.064,341.787 170.591,341.002 169.663 C 340.566 169.148,339.847 168.541,339.404 168.314 C 338.962 168.087,338.780 168.062,339.000 168.257 M60.148 168.649 C 59.713 168.828,56.211 172.800,56.488 172.800 C 56.562 172.800,57.555 171.810,58.694 170.600 C 59.833 169.390,60.728 168.414,60.682 168.432 C 60.637 168.449,60.397 168.547,60.148 168.649 M345.234 175.447 C 345.765 176.133,346.280 176.623,346.379 176.535 C 346.477 176.447,346.043 175.886,345.413 175.288 L 344.269 174.200 345.234 175.447 M347.701 183.800 C 347.705 184.680,347.787 184.993,347.883 184.495 C 347.979 183.998,347.975 183.278,347.875 182.895 C 347.775 182.513,347.696 182.920,347.701 183.800 M52.188 207.800 C 52.188 221.220,52.238 226.652,52.300 219.871 C 52.361 213.090,52.361 202.110,52.300 195.471 C 52.238 188.832,52.188 194.380,52.188 207.800 M348.187 208.200 C 348.187 220.520,348.238 225.618,348.300 219.528 C 348.362 213.439,348.362 203.359,348.300 197.128 C 348.238 190.898,348.187 195.880,348.187 208.200 M347.459 233.860 C 347.316 235.544,347.199 250.889,347.199 267.960 C 347.197 298.275,347.178 299.031,346.399 300.310 C 345.959 301.030,345.600 302.065,345.600 302.610 L 345.600 303.600 200.200 303.600 L 54.800 303.600 54.800 302.747 C 54.800 302.278,54.395 301.243,53.900 300.447 L 53.000 299.000 52.793 265.600 L 52.587 232.200 52.493 265.316 L 52.400 298.432 53.300 300.116 C 54.199 301.799,54.200 301.822,54.400 326.868 C 54.599 351.763,54.606 351.943,55.453 352.868 C 56.579 354.097,57.600 356.155,57.600 357.193 C 57.600 357.651,57.915 358.137,58.300 358.273 C 59.430 358.674,60.400 359.670,60.400 360.430 C 60.400 360.895,60.825 361.230,61.645 361.410 C 62.330 361.560,63.564 362.292,64.388 363.036 C 67.852 366.166,60.237 366.000,200.236 366.000 C 340.245 366.000,332.640 366.167,336.000 363.014 C 336.770 362.291,337.850 361.590,338.400 361.456 C 339.008 361.307,339.635 360.700,340.000 359.906 C 340.336 359.173,340.951 358.549,341.400 358.483 C 341.993 358.396,342.395 357.745,342.951 355.972 C 343.421 354.473,344.093 353.270,344.751 352.753 L 345.800 351.928 346.000 326.664 C 346.180 303.944,346.268 301.276,346.875 300.167 C 347.424 299.167,348.294 230.798,347.759 230.800 C 347.736 230.800,347.601 232.177,347.459 233.860 " stroke="none" fill="#8cccac" fill-rule="evenodd"></path><path id="path2" d="M70.274 163.207 C 69.655 163.392,68.935 163.720,68.674 163.935 C 68.413 164.150,67.153 164.599,65.873 164.932 C 64.593 165.265,63.153 165.824,62.673 166.173 C 62.193 166.523,61.108 167.269,60.263 167.833 C 58.528 168.989,56.469 171.187,55.655 172.752 C 55.355 173.328,54.686 174.206,54.169 174.703 C 53.195 175.638,53.060 176.047,51.609 182.442 L 50.737 186.283 51.072 242.842 C 51.363 291.830,51.487 299.534,52.004 300.400 C 52.508 301.246,52.634 305.243,52.822 326.400 C 53.062 353.407,53.080 353.625,55.259 356.374 C 55.776 357.027,56.830 358.394,57.600 359.411 C 59.872 362.412,63.195 364.679,67.741 366.328 L 71.800 367.800 198.986 367.902 C 275.847 367.964,326.890 367.858,327.986 367.635 C 335.012 366.200,340.597 362.718,343.949 357.682 C 347.547 352.277,347.600 351.797,347.600 324.509 C 347.600 306.592,347.709 301.926,348.167 300.262 C 348.639 298.549,348.779 288.672,348.997 241.942 L 349.259 185.684 348.202 180.942 C 347.188 176.396,346.400 174.400,345.618 174.400 C 345.418 174.400,345.138 174.035,344.996 173.588 C 344.094 170.745,338.527 166.227,334.200 164.826 C 332.660 164.327,330.770 163.677,330.000 163.382 C 328.379 162.760,72.338 162.587,70.274 163.207 M328.600 163.996 C 332.338 164.841,336.425 166.305,338.053 167.382 C 339.839 168.565,344.000 172.670,344.000 173.250 C 344.000 173.427,344.535 174.182,345.190 174.927 C 348.100 178.241,348.516 183.244,348.211 211.200 C 348.073 223.850,347.834 248.870,347.680 266.800 C 347.440 294.720,347.314 299.544,346.800 300.400 C 346.289 301.251,346.170 305.168,346.000 326.664 L 345.800 351.928 344.751 352.753 C 344.093 353.270,343.421 354.473,342.951 355.972 C 342.395 357.745,341.993 358.396,341.400 358.483 C 340.951 358.549,340.336 359.173,340.000 359.906 C 339.635 360.700,339.008 361.307,338.400 361.456 C 337.850 361.590,336.770 362.291,336.000 363.014 C 332.640 366.167,340.245 366.000,200.236 366.000 C 60.237 366.000,67.852 366.166,64.388 363.036 C 63.564 362.292,62.330 361.560,61.645 361.410 C 60.825 361.230,60.400 360.895,60.400 360.430 C 60.400 359.670,59.430 358.674,58.300 358.273 C 57.915 358.137,57.600 357.651,57.600 357.193 C 57.600 356.155,56.579 354.097,55.453 352.868 C 54.606 351.943,54.599 351.763,54.400 326.868 C 54.204 302.311,54.183 301.767,53.354 300.200 L 52.508 298.600 52.233 241.600 C 51.902 172.685,51.395 179.213,57.694 171.281 C 58.516 170.247,59.706 169.040,60.338 168.600 C 60.970 168.160,61.964 167.464,62.545 167.053 C 63.455 166.410,67.180 165.127,71.400 164.002 C 73.088 163.552,326.609 163.546,328.600 163.996 " stroke="none" fill="#75bf95" fill-rule="evenodd"></path><path id="path3" d="M71.800 164.279 C 63.230 166.278,59.663 168.477,55.786 174.150 C 52.064 179.597,52.257 175.436,52.656 241.800 L 53.000 299.000 53.900 300.447 C 54.395 301.243,54.800 302.278,54.800 302.747 L 54.800 303.600 200.200 303.600 L 345.600 303.600 345.600 302.586 C 345.600 302.028,345.915 301.091,346.300 300.504 C 346.946 299.518,347.022 296.911,347.286 266.618 C 347.444 248.568,347.679 223.178,347.809 210.196 C 348.103 180.936,347.927 179.128,344.292 173.966 C 340.376 168.406,337.407 166.568,328.800 164.376 C 327.391 164.017,73.334 163.922,71.800 164.279 M332.400 166.160 C 334.988 166.738,336.074 167.192,336.947 168.060 C 337.579 168.687,338.296 169.200,338.541 169.200 C 339.115 169.200,343.200 173.544,343.200 174.154 C 343.200 174.409,343.713 175.244,344.340 176.009 C 346.642 178.817,346.607 178.344,346.518 206.000 C 346.373 251.032,346.007 297.775,345.793 298.700 L 345.585 299.600 200.216 299.600 C 84.360 299.600,54.782 299.498,54.524 299.100 C 54.346 298.825,54.060 283.300,53.888 264.600 C 53.717 245.900,53.486 220.880,53.375 209.000 C 53.169 186.927,53.425 180.407,54.596 177.905 C 55.944 175.023,59.798 170.168,61.400 169.334 C 62.060 168.990,63.050 168.301,63.600 167.802 C 64.513 166.975,68.059 166.056,72.600 165.470 C 77.875 164.790,329.256 165.457,332.400 166.160 " stroke="none" fill="#94ccac" fill-rule="evenodd"></path><path id="path4" d="M86.000 0.800 C 86.000 1.472,85.733 1.600,84.333 1.600 C 83.417 1.600,82.790 1.723,82.940 1.873 C 83.090 2.024,82.677 2.372,82.021 2.648 C 81.296 2.953,80.727 3.552,80.571 4.175 C 80.429 4.739,80.153 5.200,79.957 5.200 C 79.760 5.200,79.600 5.808,79.600 6.550 C 79.600 7.717,79.444 7.931,78.451 8.130 C 76.591 8.502,76.395 10.427,76.398 28.300 L 76.400 36.800 69.800 36.800 C 63.020 36.800,61.600 37.146,61.600 38.800 C 61.600 39.049,59.350 39.200,55.649 39.200 C 49.168 39.200,47.418 39.597,46.287 41.323 C 45.771 42.110,45.217 42.324,43.214 42.505 C 40.612 42.741,39.600 43.269,39.600 44.392 C 39.600 44.886,39.110 45.189,37.900 45.443 C 36.370 45.764,36.188 45.928,36.076 47.077 C 35.964 48.234,35.813 48.366,34.476 48.477 C 33.089 48.593,32.993 48.689,32.877 50.077 C 32.762 51.465,32.665 51.562,31.277 51.677 C 29.769 51.803,29.783 51.782,29.643 54.100 C 29.611 54.625,29.250 54.800,28.200 54.800 C 26.941 54.800,26.799 54.911,26.794 55.900 C 26.785 57.428,26.389 57.906,24.999 58.064 C 23.802 58.200,23.800 58.206,23.682 61.100 C 23.577 63.705,23.483 64.000,22.756 64.000 C 20.765 64.000,20.400 64.622,20.400 68.014 C 20.400 70.416,20.268 71.200,19.862 71.200 C 19.034 71.200,17.873 72.693,18.147 73.406 C 18.281 73.755,18.232 73.943,18.037 73.823 C 17.241 73.331,17.200 80.542,17.202 220.533 C 17.205 375.803,17.111 368.932,19.227 369.669 C 20.391 370.075,20.400 370.103,20.400 373.239 C 20.400 374.978,20.537 376.400,20.705 376.400 C 20.873 376.400,21.188 376.805,21.405 377.300 C 21.622 377.795,22.197 378.374,22.682 378.587 C 23.373 378.890,23.589 379.366,23.682 380.787 C 23.792 382.480,23.880 382.608,25.005 382.718 C 26.128 382.828,26.251 383.006,26.805 385.318 C 27.326 387.492,27.561 387.871,28.700 388.372 C 29.615 388.775,30.000 389.212,30.000 389.850 C 30.000 390.867,31.361 391.999,32.589 392.003 C 33.070 392.004,33.678 392.493,34.081 393.203 C 34.456 393.861,35.041 394.400,35.381 394.400 C 35.722 394.400,36.000 394.580,36.000 394.800 C 36.000 395.020,36.720 395.200,37.600 395.200 C 39.107 395.200,39.200 395.269,39.200 396.386 C 39.200 397.935,40.118 398.400,43.174 398.400 C 45.333 398.400,45.600 398.488,45.600 399.200 C 45.600 399.999,45.867 400.000,200.000 400.000 C 354.133 400.000,354.400 399.999,354.400 399.200 C 354.400 398.488,354.667 398.400,356.826 398.400 C 359.882 398.400,360.800 397.935,360.800 396.386 C 360.800 395.269,360.893 395.200,362.400 395.200 C 363.280 395.200,364.000 395.020,364.000 394.800 C 364.000 394.580,364.278 394.400,364.619 394.400 C 364.959 394.400,365.544 393.861,365.919 393.203 C 366.322 392.493,366.930 392.004,367.411 392.003 C 368.580 391.999,369.925 390.937,370.073 389.900 C 370.144 389.397,370.682 388.777,371.305 388.480 C 372.511 387.903,373.600 385.767,373.600 383.976 C 373.600 382.999,373.771 382.834,374.900 382.725 C 376.136 382.606,376.206 382.511,376.318 380.787 C 376.411 379.366,376.627 378.890,377.318 378.587 C 377.803 378.374,378.378 377.795,378.595 377.300 C 378.812 376.805,379.127 376.400,379.295 376.400 C 379.463 376.400,379.600 374.978,379.600 373.239 C 379.600 370.103,379.609 370.075,380.773 369.669 C 382.889 368.932,382.797 375.822,382.779 220.400 C 382.760 59.942,382.952 72.481,380.500 71.405 C 379.678 71.045,379.600 70.741,379.600 67.919 C 379.600 64.630,379.221 64.000,377.244 64.000 C 376.517 64.000,376.423 63.705,376.318 61.100 L 376.200 58.200 374.948 58.078 C 373.828 57.969,373.669 57.789,373.443 56.378 C 373.206 54.897,373.107 54.800,371.819 54.800 C 370.524 54.800,370.441 54.717,370.324 53.300 C 370.207 51.886,370.115 51.793,368.723 51.677 C 367.335 51.562,367.238 51.465,367.123 50.077 C 367.007 48.689,366.911 48.593,365.524 48.477 C 364.187 48.366,364.036 48.234,363.924 47.077 C 363.812 45.928,363.630 45.764,362.100 45.443 C 360.890 45.189,360.400 44.886,360.400 44.392 C 360.400 43.269,359.388 42.741,356.786 42.505 C 354.783 42.324,354.229 42.110,353.713 41.323 C 352.582 39.597,350.832 39.200,344.351 39.200 C 340.650 39.200,338.400 39.049,338.400 38.800 C 338.400 37.149,336.977 36.800,330.239 36.800 L 323.677 36.800 323.522 24.500 C 323.355 11.303,323.073 9.406,321.205 8.917 C 320.690 8.783,320.400 8.372,320.400 7.779 C 320.400 5.868,319.695 4.800,318.434 4.800 C 317.353 4.800,317.237 4.668,317.124 3.300 C 317.007 1.881,316.919 1.793,315.500 1.676 C 314.325 1.579,314.000 1.384,314.000 0.776 C 314.000 0.023,313.588 0.000,300.000 0.000 C 286.267 0.000,286.000 0.015,286.000 0.800 C 286.000 1.380,285.733 1.600,285.029 1.600 C 283.797 1.600,282.800 2.583,282.800 3.797 C 282.800 4.516,282.518 4.798,281.600 5.000 C 280.389 5.266,279.622 6.665,280.186 7.577 C 280.330 7.810,280.257 8.000,280.024 8.000 C 279.789 8.000,279.600 8.796,279.600 9.786 C 279.600 11.156,279.416 11.671,278.809 11.995 C 277.136 12.890,277.008 13.744,276.800 25.400 L 276.600 36.600 199.800 36.600 L 123.000 36.600 122.798 28.200 C 122.591 19.553,122.438 18.593,121.205 18.202 C 120.576 18.002,120.463 17.370,120.327 13.286 C 120.161 8.317,119.484 6.104,118.013 5.719 C 117.618 5.616,117.026 4.848,116.698 4.014 C 116.239 2.844,115.769 2.386,114.651 2.017 C 113.652 1.687,113.200 1.298,113.200 0.769 C 113.200 0.025,112.750 0.000,99.600 0.000 C 86.267 0.000,86.000 0.016,86.000 0.800 M70.200 37.581 C 66.680 37.701,63.530 37.948,63.200 38.130 C 62.870 38.311,62.949 38.176,63.376 37.830 C 64.019 37.308,65.225 37.214,70.376 37.281 L 76.600 37.361 70.200 37.581 M238.732 37.500 C 217.684 37.557,183.124 37.557,161.932 37.500 C 140.739 37.443,157.960 37.396,200.200 37.396 C 242.440 37.396,259.779 37.443,238.732 37.500 M333.119 37.497 C 331.424 37.572,328.544 37.572,326.719 37.498 C 324.894 37.424,326.280 37.362,329.800 37.362 C 333.320 37.361,334.814 37.422,333.119 37.497 M48.800 40.525 C 48.800 40.593,48.215 41.057,47.500 41.554 L 46.200 42.458 47.322 41.429 C 48.358 40.480,48.800 40.209,48.800 40.525 M330.000 163.382 C 330.770 163.677,332.660 164.327,334.200 164.826 C 338.527 166.227,344.094 170.745,344.996 173.588 C 345.138 174.035,345.418 174.400,345.618 174.400 C 346.400 174.400,347.188 176.396,348.202 180.942 L 349.259 185.684 348.997 241.942 C 348.779 288.672,348.639 298.549,348.167 300.262 C 347.709 301.926,347.600 306.592,347.600 324.509 C 347.600 351.797,347.547 352.277,343.949 357.682 C 340.597 362.718,335.012 366.200,327.986 367.635 C 326.890 367.858,275.847 367.964,198.986 367.902 L 71.800 367.800 67.741 366.328 C 63.195 364.679,59.872 362.412,57.600 359.411 C 56.830 358.394,55.776 357.027,55.259 356.374 C 53.080 353.625,53.062 353.407,52.822 326.400 C 52.634 305.243,52.508 301.246,52.004 300.400 C 51.487 299.534,51.363 291.830,51.072 242.842 L 50.737 186.283 51.609 182.442 C 53.060 176.047,53.195 175.638,54.169 174.703 C 54.686 174.206,55.355 173.328,55.655 172.752 C 56.469 171.187,58.528 168.989,60.263 167.833 C 61.108 167.269,62.193 166.523,62.673 166.173 C 63.153 165.824,64.593 165.265,65.873 164.932 C 67.153 164.599,68.413 164.150,68.674 163.935 C 68.935 163.720,69.655 163.392,70.274 163.207 C 72.338 162.587,328.379 162.760,330.000 163.382 " stroke="none" fill="#4cac74" fill-rule="evenodd"></path></g></svg>